<mxfile host="app.diagrams.net" modified="2021-10-03T09:50:36.077Z" agent="5.0 (Macintosh; Intel Mac OS X 10_15_7) AppleWebKit/537.36 (KHTML, like Gecko) Chrome/86.0.4240.193 Safari/537.36" etag="E7DzyiIoIRd69rE8RVC7" version="15.3.5" type="github">
  <diagram id="Z_KmuUnGPfKciujjyvhL" name="Page-1">
    <mxGraphModel dx="1426" dy="771" grid="1" gridSize="10" guides="1" tooltips="1" connect="1" arrows="1" fold="1" page="1" pageScale="1" pageWidth="827" pageHeight="1169" math="0" shadow="0">
      <root>
        <mxCell id="0" />
        <mxCell id="1" parent="0" />
        <mxCell id="rzJ46J_m5MCQpCVlWYE3-1" value="" style="rounded=0;whiteSpace=wrap;html=1;hachureGap=4;pointerEvents=0;" vertex="1" parent="1">
          <mxGeometry x="210" y="210" width="150" height="80" as="geometry" />
        </mxCell>
        <mxCell id="rzJ46J_m5MCQpCVlWYE3-2" value="&lt;pre&gt;DataSource&lt;/pre&gt;" style="rounded=0;whiteSpace=wrap;html=1;hachureGap=4;pointerEvents=0;" vertex="1" parent="1">
          <mxGeometry x="235" y="240" width="100" height="40" as="geometry" />
        </mxCell>
        <mxCell id="rzJ46J_m5MCQpCVlWYE3-3" value="&lt;pre&gt;DataSourceProxy&lt;/pre&gt;" style="text;html=1;strokeColor=none;fillColor=none;align=center;verticalAlign=middle;whiteSpace=wrap;rounded=0;hachureGap=4;pointerEvents=0;" vertex="1" parent="1">
          <mxGeometry x="220" y="210" width="140" height="20" as="geometry" />
        </mxCell>
        <mxCell id="rzJ46J_m5MCQpCVlWYE3-5" value="" style="rounded=0;whiteSpace=wrap;html=1;hachureGap=4;pointerEvents=0;" vertex="1" parent="1">
          <mxGeometry x="210" y="350" width="150" height="80" as="geometry" />
        </mxCell>
        <mxCell id="rzJ46J_m5MCQpCVlWYE3-6" value="&lt;pre&gt;&lt;pre&gt;Connection&lt;/pre&gt;&lt;/pre&gt;" style="rounded=0;whiteSpace=wrap;html=1;hachureGap=4;pointerEvents=0;" vertex="1" parent="1">
          <mxGeometry x="235" y="380" width="100" height="40" as="geometry" />
        </mxCell>
        <mxCell id="rzJ46J_m5MCQpCVlWYE3-7" value="&lt;pre&gt;ConnectionProxy&lt;/pre&gt;" style="text;html=1;strokeColor=none;fillColor=none;align=center;verticalAlign=middle;whiteSpace=wrap;rounded=0;hachureGap=4;pointerEvents=0;" vertex="1" parent="1">
          <mxGeometry x="220" y="350" width="140" height="20" as="geometry" />
        </mxCell>
      </root>
    </mxGraphModel>
  </diagram>
</mxfile>
